<?xml version="1.0" encoding="UTF-8"?>
<svg id="Layer_1" xmlns="http://www.w3.org/2000/svg" version="1.1" viewBox="0 0 824 824">
  <!-- Generator: Adobe Illustrator 29.6.1, SVG Export Plug-In . SVG Version: 2.1.1 Build 9)  -->
  <rect x="29.72" y="263.78" width="294.09" height="294.09" rx="30" ry="30" fill="#014898"/>
  <text transform="translate(104.91 337.9)" fill="#fbcb18" font-family="ZapfDingbatsITC, &apos;Zapf Dingbats&apos;" font-size="49.67"><tspan x="0" y="0">★</tspan></text>
  <text transform="translate(65.85 376.03)" fill="#fbcb18" font-family="ZapfDingbatsITC, &apos;Zapf Dingbats&apos;" font-size="49.67"><tspan x="0" y="0">★</tspan></text>
  <text transform="translate(54.78 428.88)" fill="#fbcb18" font-family="ZapfDingbatsITC, &apos;Zapf Dingbats&apos;" font-size="49.67"><tspan x="0" y="0">★</tspan></text>
  <text transform="translate(67.71 482.32)" fill="#fbcb18" font-family="ZapfDingbatsITC, &apos;Zapf Dingbats&apos;" font-size="49.67"><tspan x="0" y="0">★</tspan></text>
  <text transform="translate(158.72 324.3)" fill="#fbcb18" font-family="ZapfDingbatsITC, &apos;Zapf Dingbats&apos;" font-size="49.67"><tspan x="0" y="0">★</tspan></text>
  <text transform="translate(212.15 337.81)" fill="#fbcb18" font-family="ZapfDingbatsITC, &apos;Zapf Dingbats&apos;" font-size="49.67"><tspan x="0" y="0">★</tspan></text>
  <text transform="translate(246.87 349.93) rotate(45)" fill="#fbcb18" font-family="ZapfDingbatsITC, &apos;Zapf Dingbats&apos;" font-size="60.71"><tspan x="0" y="0">▲</tspan></text>
  <rect x="109.5" y="499.64" width="35.59" height="35.59" fill="#fafafa"/>
  <rect x="158.97" y="471.65" width="35.59" height="63.58" fill="#fafafa"/>
  <rect x="208.44" y="444.59" width="35.59" height="90.64" fill="#fafafa"/>
  <rect x="257.91" y="410.83" width="35.59" height="124.4" fill="#fafafa"/>
  <polygon points="262.16 363.87 223.04 402.99 202.01 381.95 201.97 382 201.93 381.95 118.17 465.71 131.09 478.63 201.97 407.74 222.94 428.72 223.04 428.62 223.14 428.72 275.08 376.78 262.16 363.87" fill="#fbcb18"/>
  <g>
    <path d="M384.27,418.43v-132.05h41.48l21.45,60.62c.89,2.84,1.91,6.5,3.06,10.99,1.15,4.49,2.32,9.34,3.5,14.53,1.18,5.2,2.29,10.25,3.32,15.15,1.03,4.91,1.88,9.16,2.53,12.76h-5.23c.65-3.54,1.49-7.75,2.53-12.63,1.03-4.87,2.14-9.91,3.32-15.11,1.18-5.2,2.35-10.07,3.5-14.62,1.15-4.55,2.17-8.24,3.06-11.08l21.09-60.62h41.65v132.05h-27.21v-62.21c0-2.89.04-6.5.13-10.81.09-4.31.21-8.96.35-13.96.15-4.99.28-10.01.4-15.07.12-5.05.21-9.82.27-14.31h1.68c-1.12,4.9-2.36,9.97-3.72,15.2-1.36,5.23-2.73,10.3-4.12,15.2-1.39,4.9-2.7,9.41-3.94,13.52-1.24,4.11-2.3,7.52-3.19,10.24l-21.89,62.21h-22.78l-22.25-62.21c-.89-2.72-1.95-6.1-3.19-10.15-1.24-4.05-2.56-8.52-3.94-13.43-1.39-4.9-2.79-9.97-4.21-15.2s-2.75-10.35-3.99-15.38h2.04c.06,4.25.15,8.89.27,13.91.12,5.02.25,10.06.4,15.11.15,5.05.27,9.75.35,14.09.09,4.34.13,8.02.13,11.03v62.21h-26.85Z"/>
    <path d="M553.37,418.43v-132.05h88.36v22.42h-61.33v31.91h56.72v22.07h-56.72v33.23h61.51v22.42h-88.54Z"/>
    <path d="M663.62,418.43v-132.05h51.49c10.04,0,18.58,1.91,25.61,5.72,7.03,3.81,12.39,9.07,16.08,15.78,3.69,6.71,5.54,14.4,5.54,23.09s-1.88,16.44-5.63,23.09c-3.75,6.65-9.19,11.85-16.31,15.6-7.12,3.75-15.76,5.63-25.92,5.63h-33.15v-21.8h28.8c5.55,0,10.12-.96,13.69-2.88,3.57-1.92,6.23-4.56,7.98-7.93,1.74-3.37,2.61-7.27,2.61-11.7s-.87-8.32-2.61-11.65c-1.74-3.34-4.42-5.94-8.02-7.8-3.6-1.86-8.18-2.79-13.74-2.79h-19.41v109.72h-27.03Z"/>
  </g>
  <g>
    <path d="M423.39,563.41c-8.35,0-15.59-1.35-21.73-4.04-6.14-2.7-10.95-6.47-14.42-11.31-3.47-4.85-5.44-10.51-5.91-16.99h15.16c.41,4.35,1.89,7.94,4.43,10.77,2.54,2.83,5.79,4.93,9.76,6.3,3.96,1.37,8.2,2.06,12.71,2.06,5.24,0,9.94-.85,14.11-2.57s7.48-4.12,9.91-7.23,3.66-6.71,3.66-10.81c0-3.73-1.05-6.76-3.15-9.1-2.1-2.33-4.89-4.25-8.36-5.75-3.47-1.5-7.28-2.82-11.43-3.96l-14-3.97c-9.33-2.64-16.59-6.43-21.77-11.35-5.18-4.92-7.78-11.22-7.78-18.89,0-6.53,1.76-12.25,5.29-17.15,3.52-4.9,8.29-8.7,14.31-11.39,6.01-2.69,12.75-4.04,20.22-4.04s14.36,1.35,20.22,4.04c5.86,2.7,10.48,6.36,13.88,11,3.39,4.64,5.2,9.89,5.4,15.75h-14.46c-.67-5.65-3.37-10.02-8.09-13.1-4.72-3.08-10.52-4.63-17.42-4.63-4.98,0-9.34.82-13.1,2.45-3.76,1.63-6.67,3.86-8.75,6.69-2.07,2.83-3.11,6.05-3.11,9.68,0,4.04,1.26,7.3,3.77,9.76,2.51,2.46,5.49,4.38,8.94,5.75,3.45,1.37,6.57,2.45,9.37,3.23l11.59,3.19c3.11.83,6.54,1.97,10.3,3.42,3.76,1.45,7.35,3.38,10.77,5.79,3.42,2.41,6.23,5.47,8.44,9.18,2.2,3.71,3.3,8.25,3.3,13.65,0,6.33-1.65,12.03-4.94,17.11-3.29,5.08-8.08,9.1-14.35,12.05-6.27,2.95-13.87,4.43-22.78,4.43Z"/>
    <path d="M522.15,563.25c-7.88,0-14.79-1.87-20.72-5.6s-10.56-8.97-13.88-15.71c-3.32-6.74-4.98-14.57-4.98-23.48s1.66-16.99,4.98-23.75c3.32-6.76,7.94-12.01,13.88-15.75s12.84-5.6,20.72-5.6c4.2,0,8.16.54,11.9,1.63,3.73,1.09,7.14,2.66,10.22,4.71,3.08,2.05,5.74,4.56,7.97,7.54,2.23,2.98,3.94,6.36,5.13,10.15l-13.45,3.81c-.62-2.23-1.58-4.28-2.88-6.14-1.3-1.87-2.87-3.49-4.7-4.86-1.84-1.37-3.95-2.44-6.34-3.19-2.38-.75-5-1.13-7.85-1.13-5.81,0-10.58,1.52-14.31,4.55-3.73,3.03-6.51,7.01-8.32,11.94s-2.72,10.29-2.72,16.09.91,11,2.72,15.9,4.59,8.85,8.32,11.86c3.73,3.01,8.5,4.51,14.31,4.51,2.9,0,5.57-.39,8.01-1.17,2.44-.78,4.6-1.88,6.49-3.3,1.89-1.42,3.49-3.12,4.78-5.09,1.29-1.97,2.25-4.12,2.88-6.45l13.37,3.81c-1.14,3.89-2.84,7.35-5.09,10.38-2.25,3.03-4.94,5.62-8.05,7.78-3.11,2.15-6.56,3.78-10.34,4.9-3.78,1.11-7.8,1.67-12.05,1.67Z"/>
    <path d="M613.12,563.25c-7.88,0-14.79-1.87-20.72-5.6s-10.56-8.97-13.88-15.71c-3.32-6.74-4.98-14.57-4.98-23.48s1.66-16.99,4.98-23.75c3.32-6.76,7.94-12.01,13.88-15.75s12.84-5.6,20.72-5.6,14.88,1.87,20.84,5.6,10.6,8.98,13.92,15.75c3.32,6.76,4.98,14.68,4.98,23.75s-1.66,16.75-4.98,23.48c-3.32,6.74-7.96,11.97-13.92,15.71s-12.91,5.6-20.84,5.6ZM613.12,550.74c5.86,0,10.68-1.5,14.46-4.51,3.78-3.01,6.58-6.96,8.4-11.86,1.81-4.9,2.72-10.2,2.72-15.9s-.91-11.11-2.72-16.06c-1.82-4.95-4.61-8.94-8.4-11.97-3.78-3.03-8.61-4.55-14.46-4.55s-10.58,1.52-14.31,4.55c-3.73,3.03-6.51,7.01-8.32,11.94s-2.72,10.29-2.72,16.09.91,11,2.72,15.9,4.59,8.85,8.32,11.86c3.73,3.01,8.5,4.51,14.31,4.51Z"/>
    <path d="M673.23,561.39v-86.93h13.53v13.37h.93c1.61-4.41,4.47-7.94,8.59-10.61s8.77-4,13.96-4c1.04,0,2.27.03,3.69.08,1.42.05,2.55.1,3.38.16v14.07c-.42-.1-1.45-.26-3.11-.47-1.66-.21-3.42-.31-5.29-.31-4.15,0-7.87.87-11.16,2.61-3.29,1.74-5.87,4.12-7.74,7.15s-2.8,6.52-2.8,10.46v54.43h-14Z"/>
    <path d="M767.08,563.25c-8.4,0-15.64-1.87-21.73-5.6s-10.78-8.94-14.07-15.63c-3.29-6.69-4.94-14.49-4.94-23.4s1.61-16.77,4.82-23.56c3.21-6.79,7.76-12.1,13.65-15.94,5.88-3.83,12.76-5.75,20.64-5.75,4.61,0,9.16.77,13.65,2.29,4.48,1.53,8.55,3.99,12.21,7.39,3.66,3.4,6.57,7.87,8.75,13.41,2.18,5.55,3.27,12.34,3.27,20.37v5.83h-67.49v-11.82h59.95l-6.53,4.35c0-5.7-.89-10.77-2.68-15.2-1.79-4.43-4.45-7.9-7.97-10.42-3.53-2.51-7.91-3.77-13.14-3.77s-9.72,1.28-13.45,3.85c-3.73,2.57-6.58,5.91-8.55,10.03-1.97,4.12-2.96,8.54-2.96,13.26v7.85c0,6.43,1.11,11.88,3.34,16.37,2.23,4.48,5.35,7.88,9.37,10.19,4.02,2.31,8.67,3.46,13.96,3.46,3.42,0,6.53-.49,9.33-1.48,2.8-.98,5.21-2.48,7.23-4.47,2.02-2,3.58-4.47,4.67-7.43l13.53,3.73c-1.35,4.35-3.63,8.19-6.84,11.51-3.21,3.32-7.19,5.91-11.94,7.78-4.74,1.87-10.1,2.8-16.06,2.8Z"/>
  </g>
</svg>